<svg xmlns="http://www.w3.org/2000/svg"  viewBox="0 0 80 80" width="30px" height="30px"><path fill="#fff1e8" d="M14,75.5c-5.238,0-9.5-4.262-9.5-9.5V14c0-5.238,4.262-9.5,9.5-9.5h52c5.238,0,9.5,4.262,9.5,9.5v52 c0,5.238-4.262,9.5-9.5,9.5H14z"/><path fill="#a16a4a" d="M66,5c4.963,0,9,4.037,9,9v52c0,4.963-4.037,9-9,9H14c-4.963,0-9-4.037-9-9V14c0-4.963,4.037-9,9-9 H66 M66,4H14C8.477,4,4,8.477,4,14v52c0,5.523,4.477,10,10,10h52c5.523,0,10-4.477,10-10V14C76,8.477,71.523,4,66,4L66,4z"/><path fill="#a16a4a" d="M76,23H4v-9C4,8.477,8.477,4,14,4h52c5.523,0,10,4.477,10,10V23z"/><path fill="#b0c1d4" d="M64,18h4c1.105,0,2-0.895,2-2v-4c0-1.105-0.895-2-2-2h-4c-1.105,0-2,0.895-2,2v4	C62,17.105,62.895,18,64,18z"/><path fill="#f78f8f" d="M12 7H16V23H12z"/><path fill="#ffeea3" d="M16 7H20V23H16z"/><path fill="#bae0bd" d="M20 7H24V23H20z"/><path fill="#8bb7f0" d="M24 7H28V23H24z"/><path fill="#fff1e8" d="M40 18A24 24 0 1 0 40 66A24 24 0 1 0 40 18Z"/><path fill="#b0c1d4" d="M40,61.5c-10.752,0-19.5-8.748-19.5-19.5S29.248,22.5,40,22.5S59.5,31.248,59.5,42 S50.752,61.5,40,61.5z"/><path fill="#66798f" d="M40,23c10.477,0,19,8.523,19,19s-8.523,19-19,19s-19-8.523-19-19S29.523,23,40,23 M40,22 c-11.046,0-20,8.954-20,20s8.954,20,20,20s20-8.954,20-20S51.046,22,40,22L40,22z"/><path fill="#66798f" d="M40 39A3 3 0 1 0 40 45A3 3 0 1 0 40 39Z"/></svg>